# xmcd
#
# Track frame offsets: 
#        150
#        18641
#        38480
#        57938
#        74605
#        93592
#        111952
#        130008
#
# Disc length: 1988 seconds
#
# Revision: 0
# Processed by: cddbd v1.5.2PL0 Copyright (c) Steve Scherf et al.
# Submitted via: ExactAudioCopy v1.3
#
DISCID=6b07c208
DTITLE=ななひら - トリップ×フロリック
DYEAR=2019
DGENRE=
TTITLE0=お願い！コンコンお稲荷様
TTITLE1=それって最高♡ハンバーガードリーム
TTITLE2=ひみつのジュテーム♪
TTITLE3=ドキドキスパイ作戦
TTITLE4=レンジで好吃☆電子調理器使用中華料理
TTITLE5=ガンジス川で、恋をした。
TTITLE6=あたしのおへやジャングル
TTITLE7=God morgen vår!
EXTD=
EXTT0=
EXTT1=
EXTT2=
EXTT3=
EXTT4=
EXTT5=
EXTT6=
EXTT7=
PLAYORDER=
